<svg width="264" height="73" viewBox="0 0 264 73" fill="none" xmlns="http://www.w3.org/2000/svg">
<path d="M27.7 72.7C22.8333 72.7 18 72.0667 13.2 70.8C8.46667 69.4667 4.4 67.6 1 65.2L7.4 52.8C10.0667 54.7333 13.1333 56.2667 16.6 57.4C20.1333 58.5333 23.7 59.1 27.3 59.1C31.3667 59.1 34.5667 58.3 36.9 56.7C39.2333 55.1 40.4 52.8667 40.4 50C40.4 48.2 39.9333 46.6 39 45.2C38.0667 43.8 36.4 42.7333 34 42C31.6667 41.2667 28.3667 40.9 24.1 40.9H6.2L9.8 1.5H52.5V14.5H15.6L24 7.09999L21.5 35.2L13.1 27.8H27.9C34.8333 27.8 40.4 28.7667 44.6 30.7C48.8667 32.5667 51.9667 35.1333 53.9 38.4C55.8333 41.6667 56.8 45.3667 56.8 49.5C56.8 53.6333 55.7667 57.4667 53.7 61C51.6333 64.4667 48.4333 67.3 44.1 69.5C39.8333 71.6333 34.3667 72.7 27.7 72.7ZM93.3727 72.7C87.6393 72.7 82.506 71.3 77.9727 68.5C73.4393 65.6333 69.8727 61.5 67.2727 56.1C64.6727 50.7 63.3727 44.1667 63.3727 36.5C63.3727 28.8333 64.6727 22.3 67.2727 16.9C69.8727 11.5 73.4393 7.4 77.9727 4.6C82.506 1.73333 87.6393 0.299999 93.3727 0.299999C99.1727 0.299999 104.306 1.73333 108.773 4.6C113.306 7.4 116.873 11.5 119.473 16.9C122.073 22.3 123.373 28.8333 123.373 36.5C123.373 44.1667 122.073 50.7 119.473 56.1C116.873 61.5 113.306 65.6333 108.773 68.5C104.306 71.3 99.1727 72.7 93.3727 72.7ZM93.3727 59C96.106 59 98.4727 58.2333 100.473 56.7C102.539 55.1667 104.139 52.7333 105.273 49.4C106.473 46.0667 107.073 41.7667 107.073 36.5C107.073 31.2333 106.473 26.9333 105.273 23.6C104.139 20.2667 102.539 17.8333 100.473 16.3C98.4727 14.7667 96.106 14 93.3727 14C90.706 14 88.3393 14.7667 86.2727 16.3C84.2727 17.8333 82.6727 20.2667 81.4727 23.6C80.3393 26.9333 79.7727 31.2333 79.7727 36.5C79.7727 41.7667 80.3393 46.0667 81.4727 49.4C82.6727 52.7333 84.2727 55.1667 86.2727 56.7C88.3393 58.2333 90.706 59 93.3727 59ZM161.244 72.7C155.51 72.7 150.377 71.3 145.844 68.5C141.31 65.6333 137.744 61.5 135.144 56.1C132.544 50.7 131.244 44.1667 131.244 36.5C131.244 28.8333 132.544 22.3 135.144 16.9C137.744 11.5 141.31 7.4 145.844 4.6C150.377 1.73333 155.51 0.299999 161.244 0.299999C167.044 0.299999 172.177 1.73333 176.644 4.6C181.177 7.4 184.744 11.5 187.344 16.9C189.944 22.3 191.244 28.8333 191.244 36.5C191.244 44.1667 189.944 50.7 187.344 56.1C184.744 61.5 181.177 65.6333 176.644 68.5C172.177 71.3 167.044 72.7 161.244 72.7ZM161.244 59C163.977 59 166.344 58.2333 168.344 56.7C170.41 55.1667 172.01 52.7333 173.144 49.4C174.344 46.0667 174.944 41.7667 174.944 36.5C174.944 31.2333 174.344 26.9333 173.144 23.6C172.01 20.2667 170.41 17.8333 168.344 16.3C166.344 14.7667 163.977 14 161.244 14C158.577 14 156.21 14.7667 154.144 16.3C152.144 17.8333 150.544 20.2667 149.344 23.6C148.21 26.9333 147.644 31.2333 147.644 36.5C147.644 41.7667 148.21 46.0667 149.344 49.4C150.544 52.7333 152.144 55.1667 154.144 56.7C156.21 58.2333 158.577 59 161.244 59ZM229.115 72.7C223.382 72.7 218.248 71.3 213.715 68.5C209.182 65.6333 205.615 61.5 203.015 56.1C200.415 50.7 199.115 44.1667 199.115 36.5C199.115 28.8333 200.415 22.3 203.015 16.9C205.615 11.5 209.182 7.4 213.715 4.6C218.248 1.73333 223.382 0.299999 229.115 0.299999C234.915 0.299999 240.048 1.73333 244.515 4.6C249.048 7.4 252.615 11.5 255.215 16.9C257.815 22.3 259.115 28.8333 259.115 36.5C259.115 44.1667 257.815 50.7 255.215 56.1C252.615 61.5 249.048 65.6333 244.515 68.5C240.048 71.3 234.915 72.7 229.115 72.7ZM229.115 59C231.848 59 234.215 58.2333 236.215 56.7C238.282 55.1667 239.882 52.7333 241.015 49.4C242.215 46.0667 242.815 41.7667 242.815 36.5C242.815 31.2333 242.215 26.9333 241.015 23.6C239.882 20.2667 238.282 17.8333 236.215 16.3C234.215 14.7667 231.848 14 229.115 14C226.448 14 224.082 14.7667 222.015 16.3C220.015 17.8333 218.415 20.2667 217.215 23.6C216.082 26.9333 215.515 31.2333 215.515 36.5C215.515 41.7667 216.082 46.0667 217.215 49.4C218.415 52.7333 220.015 55.1667 222.015 56.7C224.082 58.2333 226.448 59 229.115 59Z" fill="#4762FF"/>
</svg>
