<svg width="128" height="73" viewBox="0 0 128 73" fill="none" xmlns="http://www.w3.org/2000/svg">
<path d="M28.5 0.299999C34.9667 0.299999 40.5333 1.63333 45.2 4.29999C49.8667 6.96666 53.4667 10.8667 56 16C58.5333 21.0667 59.8 27.4 59.8 35C59.8 43.0667 58.2667 49.9 55.2 55.5C52.2 61.1 48.0333 65.3667 42.7 68.3C37.3667 71.2333 31.1667 72.7 24.1 72.7C20.4333 72.7 16.9 72.3 13.5 71.5C10.1 70.7 7.16667 69.5 4.7 67.9L10.7 56C12.6333 57.3333 14.7 58.2667 16.9 58.8C19.1 59.2667 21.4 59.5 23.8 59.5C29.8 59.5 34.5667 57.6667 38.1 54C41.7 50.3333 43.5 44.9 43.5 37.7C43.5 36.5 43.4667 35.1667 43.4 33.7C43.3333 32.2333 43.1667 30.7667 42.9 29.3L47.3 33.5C46.1667 36.1 44.5667 38.3 42.5 40.1C40.4333 41.8333 38.0333 43.1667 35.3 44.1C32.5667 44.9667 29.5 45.4 26.1 45.4C21.6333 45.4 17.5667 44.5 13.9 42.7C10.3 40.9 7.4 38.3667 5.2 35.1C3.06667 31.8333 2 28 2 23.6C2 18.8 3.16667 14.6667 5.5 11.2C7.9 7.73333 11.1 5.06666 15.1 3.2C19.1667 1.26666 23.6333 0.299999 28.5 0.299999ZM29.5 12.4C27.1667 12.4 25.1333 12.8333 23.4 13.7C21.6667 14.5 20.3 15.7 19.3 17.3C18.3 18.8333 17.8 20.6667 17.8 22.8C17.8 26 18.8667 28.5667 21 30.5C23.2 32.3667 26.1 33.3 29.7 33.3C32.0333 33.3 34.1 32.8667 35.9 32C37.7667 31.0667 39.2 29.8 40.2 28.2C41.2 26.6 41.7 24.8 41.7 22.8C41.7 20.8 41.2 19.0333 40.2 17.5C39.2667 15.9 37.9 14.6667 36.1 13.8C34.3 12.8667 32.1 12.4 29.5 12.4ZM92.1719 0.299999C98.6385 0.299999 104.205 1.63333 108.872 4.29999C113.539 6.96666 117.139 10.8667 119.672 16C122.205 21.0667 123.472 27.4 123.472 35C123.472 43.0667 121.939 49.9 118.872 55.5C115.872 61.1 111.705 65.3667 106.372 68.3C101.039 71.2333 94.8385 72.7 87.7719 72.7C84.1052 72.7 80.5719 72.3 77.1719 71.5C73.7719 70.7 70.8385 69.5 68.3719 67.9L74.3719 56C76.3052 57.3333 78.3719 58.2667 80.5719 58.8C82.7719 59.2667 85.0719 59.5 87.4719 59.5C93.4719 59.5 98.2385 57.6667 101.772 54C105.372 50.3333 107.172 44.9 107.172 37.7C107.172 36.5 107.139 35.1667 107.072 33.7C107.005 32.2333 106.839 30.7667 106.572 29.3L110.972 33.5C109.839 36.1 108.239 38.3 106.172 40.1C104.105 41.8333 101.705 43.1667 98.9719 44.1C96.2385 44.9667 93.1719 45.4 89.7719 45.4C85.3052 45.4 81.2385 44.5 77.5719 42.7C73.9719 40.9 71.0719 38.3667 68.8719 35.1C66.7385 31.8333 65.6719 28 65.6719 23.6C65.6719 18.8 66.8385 14.6667 69.1719 11.2C71.5719 7.73333 74.7719 5.06666 78.7719 3.2C82.8385 1.26666 87.3052 0.299999 92.1719 0.299999ZM93.1719 12.4C90.8385 12.4 88.8052 12.8333 87.0719 13.7C85.3385 14.5 83.9719 15.7 82.9719 17.3C81.9719 18.8333 81.4719 20.6667 81.4719 22.8C81.4719 26 82.5385 28.5667 84.6719 30.5C86.8719 32.3667 89.7719 33.3 93.3719 33.3C95.7052 33.3 97.7719 32.8667 99.5719 32C101.439 31.0667 102.872 29.8 103.872 28.2C104.872 26.6 105.372 24.8 105.372 22.8C105.372 20.8 104.872 19.0333 103.872 17.5C102.939 15.9 101.572 14.6667 99.7719 13.8C97.9719 12.8667 95.7719 12.4 93.1719 12.4Z" fill="#4762FF"/>
</svg>
