<svg width="39" height="38" viewBox="0 0 39 38" fill="none" xmlns="http://www.w3.org/2000/svg">
<path d="M15.9103 21.9333C18.2297 24.2862 21.0362 26.1028 24.1325 27.2555L28.3214 23.9222C28.4456 23.8367 28.5928 23.7909 28.7436 23.7909C28.8944 23.7909 29.0417 23.8367 29.1658 23.9222L36.9436 28.9333C37.2389 29.1108 37.4889 29.3546 37.6737 29.6453C37.8586 29.936 37.9734 30.2657 38.009 30.6084C38.0445 30.9511 37.9999 31.2974 37.8787 31.6199C37.7574 31.9424 37.5628 32.2323 37.3103 32.4666L33.6658 36.0666C33.1439 36.5823 32.5025 36.9608 31.7987 37.1682C31.0949 37.3757 30.3507 37.4057 29.6325 37.2555C22.4683 35.7759 15.8649 32.3105 10.577 27.2555C5.40638 22.1502 1.82837 15.6542 0.276958 8.55551C0.123698 7.84844 0.155686 7.11377 0.36982 6.4227C0.583955 5.73163 0.972975 5.10759 1.49918 4.61107L5.27696 0.966621C5.51074 0.726385 5.79583 0.542149 6.1109 0.427707C6.42597 0.313266 6.76284 0.271586 7.0963 0.305787C7.42976 0.339988 7.75116 0.449184 8.03644 0.625199C8.32172 0.801214 8.56348 1.03949 8.74363 1.32218L13.9214 8.99996C14.0107 9.12052 14.0589 9.26658 14.0589 9.41662C14.0589 9.56666 14.0107 9.71273 13.9214 9.83329L10.5103 13.9333C11.6943 16.9677 13.5389 19.7004 15.9103 21.9333Z" fill="#4762FF"/>
</svg>
